<svg width="36" height="38" viewBox="0 0 36 38" fill="none" xmlns="http://www.w3.org/2000/svg">
<path d="M19.7234 28.446C18.7608 25.15 20.2193 22.2721 20.4526 21.9998L21.0651 21.2123L22.7569 20.2206L24.0403 18.9372L24.682 18.2955L25.3237 17.6538L25.8779 17.4496L26.2862 17.5662L27.0154 18.0621L27.0154 18.3538L26.8988 18.7038L26.6363 18.9663L23.6319 21.9706L23.6611 22.3498L24.0695 22.7582L24.5945 22.6415L24.9153 22.3207L28.853 18.383L29.3781 16.8079L29.9031 15.1745L30.1948 14.1827L30.2823 14.0952L30.8365 13.7744L31.5073 14.0952L31.624 14.5619L31.5073 15.3203L31.0698 18.2079L30.8365 18.6163L30.6323 19.1122L30.3115 19.608L29.7281 20.3081L28.2988 22.029L24.3903 25.9375L24.2445 27.1918L24.2736 27.921L24.4778 28.4752" stroke="#0689D8" stroke-width="0.742501"/>
<path d="M16.2766 28.4714C17.2392 25.1754 15.7807 22.2974 15.5474 22.0252L14.9349 21.2377L13.2431 20.2459L11.9597 18.9625L11.318 18.3208L10.6763 17.6791L10.1221 17.475L9.71376 17.5916L8.98456 18.0875L8.98456 18.3792L9.10123 18.7292L9.36374 18.9917L12.3681 21.996L12.3389 22.3752L11.9305 22.7836L11.4055 22.6669L11.0847 22.3461L7.14696 18.4083L6.62193 16.8333L6.0969 15.1998L5.80522 14.2081L5.71772 14.1206L5.16352 13.7998L4.49265 14.1206L4.37598 14.5873L4.49265 15.3457L4.93018 18.2333L5.16352 18.6417L5.3677 19.1376L5.68855 19.6334L6.27191 20.3335L7.70116 22.0544L11.6097 25.9629L11.7555 27.2171L11.7264 27.9464L11.5222 28.5005" stroke="#0689D8" stroke-width="0.742501"/>
<path d="M26.0625 9.24002C26.0625 14.0493 22.3442 17.9025 17.8124 17.9025C13.2807 17.9025 9.56243 14.0493 9.56243 9.24002C9.56243 4.4307 13.2807 0.577501 17.8124 0.577501C22.3442 0.577501 26.0625 4.4307 26.0625 9.24002Z" fill="white" stroke="#0689D8" stroke-width="1.155"/>
<path d="M9.47992 9.24023H25.9799" stroke="#0689D8" stroke-width="1.155"/>
<path d="M24.5775 14.6025C19.1479 12.2075 16.3393 12.1564 11.79 14.6025M24.5775 14.6025C19.1479 12.2075 16.3393 12.1564 11.79 14.6025" stroke="#0689D8" stroke-width="1.155"/>
<path d="M24.5775 3.87793C19.1479 6.27296 16.3393 6.32405 11.79 3.87793M24.5775 3.87793C19.1479 6.27296 16.3393 6.32405 11.79 3.87793" stroke="#0689D8" stroke-width="1.155"/>
<path d="M18.555 0.578125C21.1544 7.34365 21.0225 11.1376 18.555 17.9032" stroke="#0689D8" stroke-width="1.155"/>
<path d="M17.0729 0.578125C14.4735 7.34365 14.6054 11.1376 17.0729 17.9032" stroke="#0689D8" stroke-width="1.155"/>
<path d="M9.67806 33.4844V35.7109H8.92806V30.0234H11.0257C11.6481 30.0234 12.1351 30.1823 12.4867 30.5C12.8408 30.8177 13.0179 31.2383 13.0179 31.7617C13.0179 32.3138 12.8447 32.7396 12.4984 33.0391C12.1546 33.3359 11.6611 33.4844 11.0179 33.4844H9.67806ZM9.67806 32.8711H11.0257C11.4268 32.8711 11.734 32.7773 11.9476 32.5898C12.1611 32.3997 12.2679 32.1263 12.2679 31.7695C12.2679 31.431 12.1611 31.1602 11.9476 30.957C11.734 30.7539 11.4411 30.6484 11.0687 30.6406H9.67806V32.8711ZM15.9046 32.1328C15.7952 32.1146 15.6768 32.1055 15.5492 32.1055C15.0752 32.1055 14.7536 32.3073 14.5843 32.7109V35.7109H13.8617V31.4844H14.5648L14.5765 31.9727C14.8135 31.5951 15.1494 31.4062 15.5843 31.4062C15.7249 31.4062 15.8317 31.4245 15.9046 31.4609V32.1328ZM16.3031 33.5586C16.3031 33.1445 16.3838 32.7721 16.5452 32.4414C16.7093 32.1107 16.9359 31.8555 17.2249 31.6758C17.5166 31.4961 17.8486 31.4062 18.221 31.4062C18.7965 31.4062 19.2614 31.6055 19.6156 32.0039C19.9723 32.4023 20.1507 32.9323 20.1507 33.5938V33.6445C20.1507 34.056 20.0713 34.4258 19.9124 34.7539C19.7562 35.0794 19.5309 35.3333 19.2367 35.5156C18.945 35.6979 18.609 35.7891 18.2288 35.7891C17.6559 35.7891 17.1911 35.5898 16.8343 35.1914C16.4801 34.793 16.3031 34.2656 16.3031 33.6094V33.5586ZM17.0296 33.6445C17.0296 34.1133 17.1377 34.4896 17.3538 34.7734C17.5726 35.0573 17.8643 35.1992 18.2288 35.1992C18.596 35.1992 18.8877 35.056 19.1038 34.7695C19.32 34.4805 19.4281 34.0768 19.4281 33.5586C19.4281 33.0951 19.3174 32.7201 19.096 32.4336C18.8773 32.1445 18.5856 32 18.221 32C17.8643 32 17.5765 32.1419 17.3577 32.4258C17.139 32.7096 17.0296 33.1159 17.0296 33.6445ZM22.389 33.0273L23.3265 31.4844H24.1702L22.7874 33.5742L24.2132 35.7109H23.3773L22.4007 34.1289L21.4242 35.7109H20.5843L22.0101 33.5742L20.6273 31.4844H21.4632L22.389 33.0273ZM26.3226 34.6523L27.307 31.4844H28.0804L26.3812 36.3633C26.1182 37.0664 25.7002 37.418 25.1273 37.418L24.9906 37.4062L24.721 37.3555V36.7695L24.9163 36.7852C25.1611 36.7852 25.3512 36.7357 25.4867 36.6367C25.6247 36.5378 25.738 36.3568 25.8265 36.0938L25.9867 35.6641L24.4788 31.4844H25.2679L26.3226 34.6523Z" fill="#0689D8"/>
</svg>
