<svg width="41" height="38" viewBox="0 0 41 38" fill="none" xmlns="http://www.w3.org/2000/svg">
<g filter="url(#filter0_d_98_15234)">
<path d="M32.2981 3.33767C33.3911 2.04661 35.4639 1.68723 36.9278 2.53498V2.53498C38.3917 3.38272 38.6923 5.11656 37.5992 6.40762L23.0136 23.6355C22.2832 24.4983 20.8981 24.7384 19.9199 24.1719L18.1612 23.1534C17.1829 22.5869 16.9821 21.4283 17.7125 20.5656L32.2981 3.33767Z" fill="#FA0F0F"/>
<path d="M23.5893 23.9689L38.1749 6.74099C39.5053 5.16954 39.1394 3.05914 37.3576 2.02729C35.5758 0.995431 33.0529 1.43286 31.7224 3.00431L17.1368 20.2322C16.169 21.3753 16.4352 22.9105 17.7313 23.6611L19.4901 24.6796C20.7862 25.4302 22.6215 25.112 23.5893 23.9689Z" stroke="white" stroke-width="1.33041"/>
</g>
<rect width="6.87639" height="2.09272" transform="matrix(0.861295 0.508106 -0.653105 0.757268 31.3893 3.42761)" fill="white"/>
<path d="M20.701 24.9079L21.4555 25.3456L20.5844 25.5943L15.898 26.9323L15.3376 27.0922L15.4335 26.5283L16.0609 22.8358L16.1568 22.2719L16.6421 22.5534L20.701 24.9079Z" fill="#FA0F0F" stroke="white" stroke-width="0.75659"/>
<path d="M26.2853 3.14917H2V36H13.9728H26.2853V24.224" stroke="#FA0F0F" stroke-width="2.04678"/>
<path d="M11.7897 8.75265H9.42485V10.6865H12.172V11.2749H8.70527V5.81815H12.1345V6.41029H9.42485V8.16425H11.7897V8.75265ZM12.7154 9.21363C12.7154 8.5915 12.8628 8.09179 13.1576 7.71452C13.4525 7.33474 13.8385 7.14486 14.3157 7.14486C14.7904 7.14486 15.1664 7.30726 15.4438 7.63207V5.51832H16.1371V11.2749H15.5L15.4663 10.8402C15.1889 11.18 14.8029 11.3499 14.3082 11.3499C13.8385 11.3499 13.455 11.1575 13.1576 10.7727C12.8628 10.3879 12.7154 9.88573 12.7154 9.2661V9.21363ZM13.4087 9.29233C13.4087 9.75206 13.5037 10.1118 13.6936 10.3717C13.8834 10.6315 14.1458 10.7615 14.4806 10.7615C14.9203 10.7615 15.2414 10.5641 15.4438 10.1693V8.30667C15.2364 7.92439 14.9178 7.73326 14.4881 7.73326C14.1483 7.73326 13.8834 7.86443 13.6936 8.12677C13.5037 8.38912 13.4087 8.77764 13.4087 9.29233ZM17.9698 11.2749H17.2764V7.21981H17.9698V11.2749ZM17.2202 6.1442C17.2202 6.03177 17.2539 5.93682 17.3214 5.85937C17.3914 5.78192 17.4938 5.74319 17.6287 5.74319C17.7636 5.74319 17.8661 5.78192 17.936 5.85937C18.006 5.93682 18.041 6.03177 18.041 6.1442C18.041 6.25663 18.006 6.35033 17.936 6.42528C17.8661 6.50024 17.7636 6.53772 17.6287 6.53772C17.4938 6.53772 17.3914 6.50024 17.3214 6.42528C17.2539 6.35033 17.2202 6.25663 17.2202 6.1442ZM20.0235 6.2379V7.21981H20.7806V7.75574H20.0235V10.2705C20.0235 10.4329 20.0573 10.5553 20.1247 10.6378C20.1922 10.7177 20.3071 10.7577 20.4695 10.7577C20.5495 10.7577 20.6594 10.7427 20.7993 10.7127V11.2749C20.6169 11.3249 20.4396 11.3499 20.2672 11.3499C19.9573 11.3499 19.7237 11.2562 19.5663 11.0688C19.4089 10.8814 19.3302 10.6153 19.3302 10.2705V7.75574H18.5919V7.21981H19.3302V6.2379H20.0235Z" fill="#E4002B"/>
<defs>
<filter id="filter0_d_98_15234" x="15.4268" y="0.860962" width="24.6763" height="25.6514" filterUnits="userSpaceOnUse" color-interpolation-filters="sRGB">
<feFlood flood-opacity="0" result="BackgroundImageFix"/>
<feColorMatrix in="SourceAlpha" type="matrix" values="0 0 0 0 0 0 0 0 0 0 0 0 0 0 0 0 0 0 127 0" result="hardAlpha"/>
<feOffset dy="0.409357"/>
<feGaussianBlur stdDeviation="0.204678"/>
<feComposite in2="hardAlpha" operator="out"/>
<feColorMatrix type="matrix" values="0 0 0 0 0 0 0 0 0 0 0 0 0 0 0 0 0 0 0.25 0"/>
<feBlend mode="normal" in2="BackgroundImageFix" result="effect1_dropShadow_98_15234"/>
<feBlend mode="normal" in="SourceGraphic" in2="effect1_dropShadow_98_15234" result="shape"/>
</filter>
</defs>
</svg>
